<?xml version="1.0" encoding="UTF-8"?>
<svg viewBox="0 0 320 320" xmlns="http://www.w3.org/2000/svg">
  <g fill="orange">
    <polygon points="20,0 40,20 60,0"/>
    <polygon points="260,0 280,20 300,0"/>
    <polygon points="320,20 300,40 320,60"/>
    <polygon points="0,20 20,40 0,60"/>
    <polygon points="160,100 180,120 160,140 140,120"/>
    <polygon points="120,140 140,160 120,180 100,160"/>
    <polygon points="200,140 220,160 200,180 180,160"/>
    <polygon points="160,180 180,200 160,220 140,200"/>
    <polygon points="320,260 300,280 320,300"/>
    <polygon points="0,260 20,280 0,300"/>
    <polygon points="20,320 40,300 60,320"/>
    <polygon points="260,320 280,300 300,320"/>
  </g>
  <g fill="indigo">
    <polygon points="210,10 250,50 240,60 200,20"/>
    <polygon points="110,10 120,20 80,60 70,50"/>
    <polygon points="50,70 60,80 20,120 10,110"/>
    <polygon points="140,40 150,50 110,90 100,80"/>
    <polygon points="180,40 220,80 210,90 170,50"/>
    <polygon points="270,70 310,110 300,120 260,80"/>
    <polygon points="240,100 280,140 270,150 230,110"/>
    <polygon points="80,100 90,110 50,150 40,140"/>
    <polygon points="270,170 280,180 240,220 230,210"/>
    <polygon points="50,170 90,210 80,220 40,180"/>
    <polygon points="20,200 60,240 50,250 10,210"/>
    <polygon points="110,230 150,270 140,280 100,240"/>
    <polygon points="210,230 220,240 180,280 170,270"/>
    <polygon points="300,200 310,210 270,250 260,240"/>
    <polygon points="240,260 250,270 210,310 200,300"/>
    <polygon points="80,260 120,300 110,310 70,270"/>
  </g>
</svg>