<?xml version="1.0" encoding="UTF-8"?>
<svg viewBox="0 0 320 320" xmlns="http://www.w3.org/2000/svg">
  <g fill="orange">
    <polygon points="0,20 20,40 0,60"/>
    <polygon points="320,20 300,40 320,60"/>
    <polygon points="160,100 180,120 160,140 140,120"/>
    <polygon points="160,180 180,200 160,220 140,200"/>
    <polygon points="320,260 300,280 320,300"/>
    <polygon points="0,260 20,280 0,300"/>
  </g>
  <g fill="indigo">
    <polygon points="50,70 60,80 20,120 10,110"/>
    <polygon points="140,40 150,50 110,90 100,80"/>
    <polygon points="180,40 220,80 210,90 170,50"/>
    <polygon points="270,70 310,110 300,120 260,80"/>
    <polygon points="20,200 60,240 50,250 10,210"/>
    <polygon points="110,230 150,270 140,280 100,240"/>
    <polygon points="210,230 220,240 180,280 170,270"/>
    <polygon points="300,200 310,210 270,250 260,240"/>
  </g>
  <g fill="turquoise">
    <polygon points="20,0 30,10 40,0 50,10 60,0"/>
    <polygon points="100,0 110,10 100,20 110,30 140,0"/>
    <polygon points="80,20 90,30 80,40 90,50 80,60 50,30 60,20 70,30"/>
    <polygon points="240,100 270,130 260,140 250,130 240,140 230,130 240,120 230,110"/>
    <polygon points="210,130 220,140 210,150 220,160 210,170 200,160 190,170 180,160"/>
    <polygon points="290,150 300,160 270,190 260,180 270,170 260,160 270,150 280,160"/>
    <polygon points="240,180 250,190 240,200 250,210 240,220 210,190 220,180 230,190"/>
    <polygon points="80,260 110,290 100,300 90,290 80,300 70,290 80,280 70,270"/>
    <polygon points="20,320 50,290 60,300 50,310 60,320"/>
    <polygon points="100,320 110,310 120,320 130,310 140,320"/>
  </g>
  <g fill="salmon">
    <polygon points="180,0 190,10 200,0 210,10 220,0"/>
    <polygon points="260,0 270,10 260,20 270,30 290,10 280,0"/>
    <polygon points="230,10 250,30 240,40 250,50 240,60 220,40 230,30 220,20"/>
    <polygon points="90,110 110,130 100,140 90,130 80,140 60,120 70,110 80,120"/>
    <polygon points="40,140 50,150 60,140 70,150 50,170 40,160 30,170 20,160"/>
    <polygon points="120,140 130,150 120,160 130,170 110,190 100,180 110,170 100,160"/>
    <polygon points="70,170 90,190 80,200 90,210 80,220 60,200 70,190 60,180"/>
    <polygon points="250,270 270,290 260,300 250,290 240,300 220,280 230,270 240,280"/>
    <polygon points="180,320 200,300 210,310 220,300 230,310 220,320"/>
    <polygon points="260,320 280,300 290,310 280,320"/>
  </g>
</svg>